<svg xmlns="http://www.w3.org/2000/svg" width="190" height="51" viewBox="0 0 190 51"><g fill="none"><path fill="#323232" d="M68.788,23.876 L68.788,34.064 L64,34.064 L64,16.352 L68.644,16.352 L68.644,18.548 C69.724,16.712 71.848,15.884 73.756,15.884 C78.148,15.884 80.164,19.016 80.164,22.904 L80.164,34.064 L75.376,34.064 L75.376,23.732 C75.376,21.752 74.404,20.204 72.1,20.204 C70.012,20.204 68.788,21.824 68.788,23.876 Z M83.044,35.036 L87.364,33.884 C87.688,35.828 89.236,37.232 91.504,37.232 C94.528,37.232 96.22,35.72 96.22,32.3 L96.22,31.004 C95.5,32.156 93.844,33.272 91.288,33.272 C86.572,33.272 83.044,29.636 83.044,24.668 C83.044,19.988 86.428,16.028 91.288,16.028 C94.096,16.028 95.716,17.252 96.328,18.44 L96.328,16.352 L100.936,16.352 L100.936,32.156 C100.936,37.016 98.308,41.444 91.648,41.444 C86.788,41.444 83.548,38.42 83.044,35.036 Z M92.116,29.168 C94.564,29.168 96.292,27.404 96.292,24.668 C96.292,21.932 94.42,20.204 92.116,20.204 C89.74,20.204 87.868,21.932 87.868,24.668 C87.868,27.44 89.632,29.168 92.116,29.168 Z M113.032,30.248 C115.372,30.248 117.532,28.556 117.532,25.208 C117.532,21.86 115.372,20.168 113.032,20.168 C110.692,20.168 108.532,21.86 108.532,25.208 C108.532,28.52 110.692,30.248 113.032,30.248 Z M113.032,15.812 C118.324,15.812 122.32,19.736 122.32,25.208 C122.32,30.644 118.324,34.604 113.032,34.604 C107.74,34.604 103.744,30.644 103.744,25.208 C103.744,19.736 107.74,15.812 113.032,15.812 Z M136.18,16.28 L136.18,21.104 C135.64,20.996 135.172,20.96 134.74,20.96 C132.292,20.96 130.168,22.148 130.168,25.964 L130.168,34.064 L125.38,34.064 L125.38,16.352 L130.024,16.352 L130.024,18.98 C131.104,16.64 133.552,16.208 135.064,16.208 C135.46,16.208 135.82,16.244 136.18,16.28 Z M155.548,8 L155.548,30.86 C155.548,32.048 155.62,33.344 155.692,34.064 L151.12,34.064 C151.048,33.704 150.94,32.84 150.94,32.012 C150.148,33.416 148.348,34.496 145.972,34.496 C140.932,34.496 137.332,30.536 137.332,25.172 C137.332,19.988 140.824,15.92 145.828,15.92 C148.888,15.92 150.328,17.18 150.832,18.116 L150.832,8 L155.548,8 Z M142.156,25.172 C142.156,28.34 144.028,30.212 146.548,30.212 C148.996,30.212 150.904,28.34 150.904,25.136 C150.904,21.968 148.996,20.204 146.548,20.204 C144.1,20.204 142.156,22.004 142.156,25.172 Z M163.504,23.192 L171.424,23.192 C171.352,21.428 170.2,19.7 167.464,19.7 C164.98,19.7 163.612,21.572 163.504,23.192 Z M171.892,27.8 L175.888,28.988 C174.988,32.048 172.18,34.604 167.824,34.604 C162.964,34.604 158.68,31.112 158.68,25.136 C158.68,19.484 162.856,15.812 167.392,15.812 C172.864,15.812 176.14,19.304 176.14,24.992 C176.14,25.676 176.068,26.396 176.068,26.468 L163.396,26.468 C163.504,28.808 165.484,30.5 167.86,30.5 C170.092,30.5 171.316,29.384 171.892,27.8 Z M190,16.28 L190,21.104 C189.46,20.996 188.992,20.96 188.56,20.96 C186.112,20.96 183.988,22.148 183.988,25.964 L183.988,34.064 L179.2,34.064 L179.2,16.352 L183.844,16.352 L183.844,18.98 C184.924,16.64 187.372,16.208 188.884,16.208 C189.28,16.208 189.64,16.244 190,16.28 Z"/><path fill="#15C" d="M14.6063026,41.0605265 L14.6063026,30.4046124 C14.6063026,29.0239005 15.7255907,27.9046124 17.1063026,27.9046124 C18.4870144,27.9046124 19.6063026,29.0239005 19.6063026,30.4046124 L19.6063026,43.1901561 L23.8447586,44.9954244 C25.2217371,45.5819153 26.7782629,45.5819153 28.1552414,44.9954244 L43.6552414,38.3935726 C45.6835501,37.5296633 47,35.5380666 47,33.3334407 L47,16.9279955 C47,14.7233695 45.6835501,12.7317729 43.6552414,11.8678636 L28.9389655,5.59982016 C27.0612676,4.80005995 24.9387324,4.80005995 23.0610345,5.59982016 L18.6025166,7.49881852 L36.9578045,15.2673943 C37.8825654,15.6587843 38.4833984,16.5655072 38.4833984,17.5696829 L38.4833984,23.4783743 C38.4833984,24.8590862 37.3641103,25.9783743 35.9833984,25.9783743 C34.6026866,25.9783743 33.4833984,24.8590862 33.4833984,23.4783743 L33.4833984,19.2262888 L12.2086889,10.2221155 L8.34475864,11.8678636 C6.31644992,12.7317729 5,14.7233695 5,16.9279955 L5,33.3334407 C5,35.5380666 6.31644992,37.5296633 8.34475864,38.3935726 L14.6063026,41.0605265 Z M45.6145517,7.26774369 C49.4867774,8.91702503 52,12.7191641 52,16.9279955 L52,33.3334407 C52,37.542272 49.4867774,41.3444111 45.6145517,42.9936925 L30.1145517,49.5955443 C27.4857746,50.7152086 24.5142254,50.7152086 21.8854483,49.5955443 L6.38544832,42.9936925 C2.51322257,41.3444111 0,37.542272 0,33.3334407 L0,16.9279955 C0,12.7191641 2.51322257,8.91702503 6.38544832,7.26774369 L21.1017242,0.999700263 C24.2312207,-0.333233421 27.7687793,-0.333233421 30.8982758,0.999700263 L45.6145517,7.26774369 Z"/></g></svg>